<svg width="1358" height="1358" viewBox="0 0 1358 1358" fill="none"
    xmlns="http://www.w3.org/2000/svg">
    <path fill-rule="evenodd" clip-rule="evenodd"
        d="M1018.41 1018.41C1205.87 830.96 1205.87 527.04 1018.41 339.589C830.962 152.137 527.043 152.137 339.591 339.589C152.14 527.04 152.14 830.96 339.591 1018.41C527.043 1205.86 830.962 1205.86 1018.41 1018.41ZM882.649 882.647C1009.17 756.125 1028.95 563.28 941.977 416.026C794.722 329.056 601.878 348.832 475.356 475.354C348.834 601.875 329.058 794.72 416.028 941.975C563.283 1028.94 756.128 1009.17 882.649 882.647Z"
        fill="#2E314A" />
    <path fill-rule="evenodd" clip-rule="evenodd"
        d="M1018.41 1018.41C1168.38 868.45 1168.38 625.315 1018.41 475.353C990.296 447.236 958.903 424.39 925.462 406.816C931.026 409.74 936.533 412.81 941.978 416.026C1028.95 563.281 1009.17 756.125 882.65 882.647C756.128 1009.17 563.283 1028.94 416.028 941.975C432.141 969.256 451.917 994.972 475.356 1018.41C625.318 1168.37 868.453 1168.37 1018.41 1018.41Z"
        fill="url(#paint0_linear_1_515)" />
    <path fill-rule="evenodd" clip-rule="evenodd"
        d="M941.977 416.026C925.865 388.745 906.089 363.029 882.649 339.589C732.688 189.627 489.553 189.627 339.591 339.589C189.63 489.55 189.63 732.685 339.591 882.647C363.031 906.086 388.747 925.862 416.028 941.974C329.058 794.719 348.835 601.875 475.356 475.353C601.878 348.832 794.722 329.056 941.977 416.026Z"
        fill="url(#paint1_linear_1_515)" />
    <defs>
        <linearGradient id="paint0_linear_1_515" x1="796.476" y1="537.835" x2="933.503" y2="1132.43"
            gradientUnits="userSpaceOnUse">
            <stop offset="0.107544" stop-color="#2EC4E5" />
            <stop offset="0.845668" stop-color="#2E41E5" />
        </linearGradient>
        <linearGradient id="paint1_linear_1_515" x1="681.799" y1="163.749" x2="828.839" y2="736.905"
            gradientUnits="userSpaceOnUse">
            <stop offset="0.14344" stop-color="#F16767" />
            <stop offset="0.812752" stop-color="#F18867" />
        </linearGradient>
    </defs>
</svg>
