<svg width="1440" height="1440" viewBox="0 0 1440 1440" fill="none" xmlns="http://www.w3.org/2000/svg">
    <rect width="1440" height="1440"/>
    <circle cx="1140" cy="1140" r="60" fill="#2E314A"/>
    <path fill-rule="evenodd" clip-rule="evenodd" d="M1059.41 1059.41C1246.87 871.96 1246.87 568.04 1059.41 380.589C871.962 193.137 568.043 193.137 380.591 380.589C193.14 568.04 193.14 871.96 380.591 1059.41C568.043 1246.86 871.962 1246.86 1059.41 1059.41ZM923.649 923.647C1050.17 797.125 1069.95 604.28 982.977 457.026C835.722 370.056 642.878 389.832 516.356 516.354C389.834 642.875 370.058 835.72 457.028 982.975C604.283 1069.94 797.128 1050.17 923.649 923.647Z" fill="#2E314A"/>
    <path fill-rule="evenodd" clip-rule="evenodd" d="M1059.41 1059.41C1209.38 909.45 1209.38 666.315 1059.41 516.353C1031.3 488.236 999.903 465.39 966.462 447.816C972.026 450.74 977.533 453.81 982.978 457.026C1069.95 604.281 1050.17 797.125 923.65 923.647C797.128 1050.17 604.283 1069.94 457.028 982.975C473.141 1010.26 492.917 1035.97 516.356 1059.41C666.318 1209.37 909.453 1209.37 1059.41 1059.41Z" fill="url(#paint0_linear_1_513)"/>
    <path fill-rule="evenodd" clip-rule="evenodd" d="M982.977 457.026C966.865 429.745 947.089 404.029 923.649 380.589C773.688 230.627 530.553 230.627 380.591 380.589C230.63 530.55 230.63 773.685 380.591 923.647C404.031 947.086 429.747 966.862 457.028 982.974C370.058 835.719 389.835 642.875 516.356 516.353C642.878 389.832 835.722 370.056 982.977 457.026Z" fill="url(#paint1_linear_1_513)"/>
    <defs>
        <linearGradient id="paint0_linear_1_513" x1="837.476" y1="578.835" x2="974.503" y2="1173.43" gradientUnits="userSpaceOnUse">
            <stop offset="0.107544" stop-color="#2EC4E5"/>
            <stop offset="0.845668" stop-color="#2E41E5"/>
        </linearGradient>
        <linearGradient id="paint1_linear_1_513" x1="722.799" y1="204.749" x2="869.839" y2="777.905" gradientUnits="userSpaceOnUse">
            <stop offset="0.14344" stop-color="#F16767"/>
            <stop offset="0.812752" stop-color="#F18867"/>
        </linearGradient>
    </defs>
</svg>
