<svg width="1440" height="1440" fill="none" xmlns="http://www.w3.org/2000/svg">
    <path d="M0 0h1440v1440H0z" />
    <path fill-rule="evenodd" clip-rule="evenodd"
        d="M1059.41 1059.41c187.46-187.45 187.46-491.37 0-678.821-187.448-187.452-491.367-187.452-678.819 0-187.451 187.451-187.451 491.371 0 678.821 187.452 187.45 491.371 187.45 678.819 0ZM923.649 923.647c126.521-126.522 146.301-319.367 59.328-466.621-147.255-86.97-340.099-67.194-466.621 59.328-126.522 126.521-146.298 319.366-59.328 466.621 147.255 86.965 340.1 67.195 466.621-59.328Z"
        fill="#fff" />
    <path fill-rule="evenodd" clip-rule="evenodd"
        d="M1059.41 1059.41c149.97-149.96 149.97-393.095 0-543.057-28.11-28.117-59.507-50.963-92.948-68.537a380.91 380.91 0 0 1 16.516 9.21c86.972 147.255 67.192 340.099-59.328 466.621-126.522 126.523-319.367 146.293-466.622 59.328 16.113 27.285 35.889 52.995 59.328 76.435 149.962 149.96 393.097 149.96 543.054 0Z"
        fill="url(#a)" />
    <path fill-rule="evenodd" clip-rule="evenodd"
        d="M982.977 457.026c-16.112-27.281-35.888-52.997-59.328-76.437-149.961-149.962-393.096-149.962-543.058 0-149.961 149.961-149.961 393.096 0 543.058 23.44 23.439 49.156 43.215 76.437 59.327-86.97-147.255-67.193-340.099 59.328-466.621 126.522-126.521 319.366-146.297 466.621-59.327Z"
        fill="url(#b)" />
    <circle cx="1140" cy="1140" r="60" fill="#fff" />
    <defs>
        <linearGradient id="a" x1="837.476" y1="578.835" x2="974.503" y2="1173.43"
            gradientUnits="userSpaceOnUse">
            <stop offset=".108" stop-color="#2EC4E5" />
            <stop offset=".846" stop-color="#2E41E5" />
        </linearGradient>
        <linearGradient id="b" x1="722.799" y1="204.749" x2="869.839" y2="777.905"
            gradientUnits="userSpaceOnUse">
            <stop offset=".143" stop-color="#F16767" />
            <stop offset=".813" stop-color="#F18867" />
        </linearGradient>
    </defs>
</svg>