<svg width="1440" height="1440" viewBox="0 0 1440 1440" fill="none" xmlns="http://www.w3.org/2000/svg">
    <rect width="1440" height="1440"/>
    <path fill-rule="evenodd" clip-rule="evenodd" d="M441.562 954.007C445.686 962.604 450.149 971.079 454.95 979.413L453.498 980.864C445.165 975.82 436.982 970.431 428.969 964.697C412.012 952.56 395.821 938.877 380.591 923.647C230.744 773.8 230.63 530.921 380.248 380.932C380.363 380.817 380.477 380.703 380.591 380.589C380.706 380.474 380.82 380.36 380.935 380.245C530.924 230.627 773.802 230.742 923.649 380.589C938.88 395.819 952.563 412.01 964.7 428.968C966.965 432.133 969.177 435.326 971.335 438.543L966.462 447.816C962.342 445.651 958.19 443.566 954.01 441.561C811.175 373.044 634.735 397.974 516.356 516.354C397.977 634.732 373.046 811.172 441.562 954.007ZM985.055 460.588C989.856 468.921 994.318 477.396 998.442 485.993C1062.68 619.9 1044.78 783.344 944.75 900.793C938.082 908.623 931.048 916.248 923.649 923.647C805.27 1042.03 628.83 1066.96 485.995 998.44C477.398 994.316 468.923 989.853 460.589 985.052L459.138 986.504C464.182 994.838 469.571 1003.02 475.306 1011.03C487.442 1027.99 501.126 1044.18 516.356 1059.41C666.202 1209.26 909.078 1209.37 1059.07 1059.76C1059.18 1059.64 1059.3 1059.53 1059.41 1059.41C1059.53 1059.3 1059.64 1059.18 1059.76 1059.07C1209.37 909.076 1209.26 666.199 1059.41 516.353C1044.18 501.123 1027.99 487.44 1011.04 475.303C1003.02 469.569 994.84 464.18 986.507 459.136L985.055 460.588ZM842.727 1184.13C683 1226.2 505.81 1184.63 380.591 1059.41C255.373 934.193 213.801 757.003 255.875 597.275C239.389 717.055 277.189 842.872 369.278 934.96C392.664 958.347 418.243 978.244 445.361 994.641C461.758 1021.76 481.655 1047.34 505.042 1070.73C597.13 1162.81 722.948 1200.61 842.727 1184.13ZM597.278 255.873C757.005 213.798 934.195 255.37 1059.41 380.589C1184.63 505.807 1226.2 682.998 1184.13 842.725C1200.62 722.946 1162.82 597.128 1070.73 505.04C1047.35 481.662 1021.78 461.773 994.682 445.382L994.66 445.343L994.621 445.32C978.228 418.217 958.339 392.651 934.963 369.275C842.875 277.187 717.057 239.386 597.278 255.873Z" fill="white"/>
    <circle cx="1140" cy="1140" r="60" fill="white"/>
</svg>
